0
SECTION
2
HEADER
9
$INSUNITS
70
4
9
$ACADVER
1
AC1014
9
$HANDSEED
5
FFFF
0
ENDSEC
0
SECTION
2
TABLES
0
TABLE
2
VPORT
5
8
100
AcDbSymbolTable
0
ENDTAB
0
TABLE
2
LTYPE
5
5
100
AcDbSymbolTable
0
LTYPE
5
14
100
AcDbSymbolTableRecord
100
AcDbLinetypeTableRecord
2
BYBLOCK
70
0
0
LTYPE
5
15
100
AcDbSymbolTableRecord
100
AcDbLinetypeTableRecord
2
BYLAYER
70
0
0
LTYPE
5
16
100
AcDbSymbolTableRecord
100
AcDbLinetypeTableRecord
2
DASHED
70
0
3
Dashed __ __ __ __ __ __ __ __ __ __ __ __ __ _
72
65
73
2
40
0.75
49
0.5
74
0
49
-0.25
74
0
0
ENDTAB
0
TABLE
2
LAYER
5
2
100
AcDbSymbolTable
70
2
0
LAYER
5
50
100
AcDbSymbolTableRecord
100
AcDbLayerTableRecord
2
0
70
0
62
7
6
CONTINUOUS
0
ENDTAB
0
TABLE
2
STYLE
5
3
100
AcDbSymbolTable
70
1
0
STYLE
5
11
100
AcDbSymbolTableRecord
100
AcDbTextStyleTableRecord
2
STANDARD
70
0
0
ENDTAB
0
TABLE
2
VIEW
5
6
100
AcDbSymbolTable
70
0
0
ENDTAB
0
TABLE
2
UCS
5
7
100
AcDbSymbolTable
70
0
0
ENDTAB
0
TABLE
2
APPID
5
9
100
AcDbSymbolTable
70
2
0
APPID
5
12
100
AcDbSymbolTableRecord
100
AcDbRegAppTableRecord
2
ACAD
70
0
0
ENDTAB
0
TABLE
2
DIMSTYLE
5
A
100
AcDbSymbolTable
70
1
0
ENDTAB
0
TABLE
2
BLOCK_RECORD
5
1
100
AcDbSymbolTable
70
1
0
BLOCK_RECORD
5
1F
100
AcDbSymbolTableRecord
100
AcDbBlockTableRecord
2
*MODEL_SPACE
0
BLOCK_RECORD
5
1B
100
AcDbSymbolTableRecord
100
AcDbBlockTableRecord
2
*PAPER_SPACE
0
ENDTAB
0
ENDSEC
0
SECTION
2
BLOCKS
0
BLOCK
5
20
100
AcDbEntity
100
AcDbBlockBegin
2
*MODEL_SPACE
0
ENDBLK
5
21
100
AcDbEntity
100
AcDbBlockEnd
0
BLOCK
5
1C
100
AcDbEntity
100
AcDbBlockBegin
2
*PAPER_SPACE
0
ENDBLK
5
1D
100
AcDbEntity
100
AcDbBlockEnd
0
ENDSEC
0
SECTION
2
ENTITIES
0
LWPOLYLINE
5
100
100
AcDbEntity
8
0
100
AcDbPolyline
90
20
70
1
43
0.0
10
88.0565
20
22.832699999999999
10
88.855900000000005
20
22.832699999999999
10
88.855900000000005
20
25.933299999999999
10
88.0565
20
25.933299999999999
10
88.0565
20
31.733499999999999
10
88.855900000000005
20
31.733499999999999
10
88.855900000000005
20
34.832700000000003
10
88.0565
20
34.832700000000003
10
88.0565
20
35.832999999999998
10
74.057199999999995
20
35.832999999999998
10
74.057199999999995
20
34.832700000000003
10
73.256399999999999
20
34.832700000000003
10
73.256399999999999
20
31.733499999999999
10
74.057199999999995
20
31.733499999999999
10
74.057199999999995
20
25.933299999999999
10
73.256399999999999
20
25.933299999999999
10
73.256399999999999
20
22.832699999999999
10
74.057199999999995
20
22.832699999999999
10
74.057199999999995
20
21.833600000000001
10
88.0565
20
21.833600000000001
0
LWPOLYLINE
5
101
100
AcDbEntity
8
0
100
AcDbPolyline
90
20
70
1
43
0.0
10
50.755899999999997
20
22.832699999999999
10
50.755899999999997
20
25.933299999999999
10
49.956500000000005
20
25.933299999999999
10
49.956500000000005
20
31.733499999999999
10
50.755899999999997
20
31.733499999999999
10
50.755899999999997
20
34.832700000000003
10
49.956500000000005
20
34.832700000000003
10
49.956500000000005
20
35.832999999999998
10
35.9572
20
35.832999999999998
10
35.9572
20
34.832700000000003
10
35.156500000000001
20
34.832700000000003
10
35.156500000000001
20
31.733499999999999
10
35.9572
20
31.733499999999999
10
35.9572
20
25.933299999999999
10
35.156500000000001
20
25.933299999999999
10
35.156500000000001
20
22.832699999999999
10
35.9572
20
22.832699999999999
10
35.9572
20
21.833600000000001
10
49.956500000000005
20
21.833600000000001
10
49.956500000000005
20
22.832699999999999
0
LWPOLYLINE
5
102
100
AcDbEntity
8
0
100
AcDbPolyline
90
20
70
1
43
0.0
10
55.007200000000005
20
35.832999999999998
10
55.007200000000005
20
34.832700000000003
10
54.206400000000002
20
34.832700000000003
10
54.206400000000002
20
31.733499999999999
10
55.007200000000005
20
31.733499999999999
10
55.007200000000005
20
25.933299999999999
10
54.206400000000002
20
25.933299999999999
10
54.206400000000002
20
22.832699999999999
10
55.007200000000005
20
22.832699999999999
10
55.007200000000005
20
21.833600000000001
10
69.006500000000003
20
21.833600000000001
10
69.006500000000003
20
22.832699999999999
10
69.805899999999994
20
22.832699999999999
10
69.805899999999994
20
25.933299999999999
10
69.006500000000003
20
25.933299999999999
10
69.006500000000003
20
31.733499999999999
10
69.805899999999994
20
31.733499999999999
10
69.805899999999994
20
34.832700000000003
10
69.006500000000003
20
34.832700000000003
10
69.006500000000003
20
35.832999999999998
0
LWPOLYLINE
5
103
100
AcDbEntity
8
0
100
AcDbPolyline
90
20
70
1
43
0.0
10
93.10720000000002
20
21.833600000000001
10
107.10700000000003
20
21.833600000000001
10
107.10700000000003
20
22.832699999999999
10
107.90600000000001
20
22.832699999999999
10
107.90600000000001
20
25.933299999999999
10
107.10700000000003
20
25.933299999999999
10
107.10700000000003
20
31.733499999999999
10
107.90600000000001
20
31.733499999999999
10
107.90600000000001
20
34.832700000000003
10
107.10700000000003
20
34.832700000000003
10
107.10700000000003
20
35.832999999999998
10
93.10720000000002
20
35.832999999999998
10
93.10720000000002
20
34.832700000000003
10
92.306399999999996
20
34.832700000000003
10
92.306399999999996
20
31.733499999999999
10
93.10720000000002
20
31.733499999999999
10
93.10720000000002
20
25.933299999999999
10
92.306399999999996
20
25.933299999999999
10
92.306399999999996
20
22.832699999999999
10
93.10720000000002
20
22.832699999999999
0
LWPOLYLINE
5
104
100
AcDbEntity
8
0
100
AcDbPolyline
90
20
70
1
43
0.0
10
16.9072
20
21.833600000000001
10
30.906600000000001
20
21.833600000000001
10
30.906600000000001
20
22.832699999999999
10
31.705900000000003
20
22.832699999999999
10
31.705900000000003
20
25.933299999999999
10
30.906600000000001
20
25.933299999999999
10
30.906600000000001
20
31.733499999999999
10
31.705900000000003
20
31.733499999999999
10
31.705900000000003
20
34.832700000000003
10
30.906600000000001
20
34.832700000000003
10
30.906600000000001
20
35.832999999999998
10
16.9072
20
35.832999999999998
10
16.9072
20
34.832700000000003
10
16.1065
20
34.832700000000003
10
16.1065
20
31.733499999999999
10
16.9072
20
31.733499999999999
10
16.9072
20
25.933299999999999
10
16.1065
20
25.933299999999999
10
16.1065
20
22.832699999999999
10
16.9072
20
22.832699999999999
0
LWPOLYLINE
5
105
100
AcDbEntity
8
0
100
AcDbPolyline
90
20
70
1
43
0.0
10
126.15700000000002
20
35.832999999999998
10
112.15700000000001
20
35.832999999999998
10
112.15700000000001
20
34.832700000000003
10
111.35600000000002
20
34.832700000000003
10
111.35600000000002
20
31.733499999999999
10
112.15700000000001
20
31.733499999999999
10
112.15700000000001
20
25.933299999999999
10
111.35600000000002
20
25.933299999999999
10
111.35600000000002
20
22.832699999999999
10
112.15700000000001
20
22.832699999999999
10
112.15700000000001
20
21.833600000000001
10
126.15700000000002
20
21.833600000000001
10
126.15700000000002
20
22.832699999999999
10
126.956
20
22.832699999999999
10
126.956
20
25.933299999999999
10
126.15700000000002
20
25.933299999999999
10
126.15700000000002
20
31.733499999999999
10
126.956
20
31.733499999999999
10
126.956
20
34.832700000000003
10
126.15700000000002
20
34.832700000000003
0
LWPOLYLINE
5
106
100
AcDbEntity
8
0
100
AcDbPolyline
90
20
70
1
43
0.0
10
130.40600000000001
20
25.933299999999999
10
130.40600000000001
20
22.832699999999999
10
131.20699999999999
20
22.832699999999999
10
131.20699999999999
20
21.833600000000001
10
145.20699999999999
20
21.833600000000001
10
145.20699999999999
20
22.832699999999999
10
146.006
20
22.832699999999999
10
146.006
20
25.933299999999999
10
145.20699999999999
20
25.933299999999999
10
145.20699999999999
20
31.733499999999999
10
146.006
20
31.733499999999999
10
146.006
20
34.832700000000003
10
145.20699999999999
20
34.832700000000003
10
145.20699999999999
20
35.832999999999998
10
131.20699999999999
20
35.832999999999998
10
131.20699999999999
20
34.832700000000003
10
130.40600000000001
20
34.832700000000003
10
130.40600000000001
20
31.733499999999999
10
131.20699999999999
20
31.733499999999999
10
131.20699999999999
20
25.933299999999999
0
LWPOLYLINE
5
107
100
AcDbEntity
8
0
100
AcDbPolyline
90
20
70
1
43
0.0
10
155.53100000000001
20
44.983400000000003
10
154.732
20
44.983400000000003
10
154.732
20
50.783400000000007
10
155.53100000000001
20
50.783400000000007
10
155.53100000000001
20
53.882599999999996
10
154.732
20
53.882599999999996
10
154.732
20
54.883099999999999
10
140.732
20
54.883099999999999
10
140.732
20
53.882599999999996
10
139.93100000000001
20
53.882599999999996
10
139.93100000000001
20
50.783400000000007
10
140.732
20
50.783400000000007
10
140.732
20
44.983400000000003
10
139.93100000000001
20
44.983400000000003
10
139.93100000000001
20
41.882800000000003
10
140.732
20
41.882800000000003
10
140.732
20
40.883800000000001
10
154.732
20
40.883800000000001
10
154.732
20
41.882800000000003
10
155.53100000000001
20
41.882800000000003
0
LWPOLYLINE
5
108
100
AcDbEntity
8
0
100
AcDbPolyline
90
20
70
1
43
0.0
10
174.58099999999999
20
50.783400000000007
10
174.58099999999999
20
53.882599999999996
10
173.78200000000004
20
53.882599999999996
10
173.78200000000004
20
54.883099999999999
10
159.78200000000001
20
54.883099999999999
10
159.78200000000001
20
53.882599999999996
10
158.98099999999999
20
53.882599999999996
10
158.98099999999999
20
50.783400000000007
10
159.78200000000001
20
50.783400000000007
10
159.78200000000001
20
44.983400000000003
10
158.98099999999999
20
44.983400000000003
10
158.98099999999999
20
41.882800000000003
10
159.78200000000001
20
41.882800000000003
10
159.78200000000001
20
40.883800000000001
10
173.78200000000004
20
40.883800000000001
10
173.78200000000004
20
41.882800000000003
10
174.58099999999999
20
41.882800000000003
10
174.58099999999999
20
44.983400000000003
10
173.78200000000004
20
44.983400000000003
10
173.78200000000004
20
50.783400000000007
0
LWPOLYLINE
5
109
100
AcDbEntity
8
0
100
AcDbPolyline
90
20
70
1
43
0.0
10
120.881
20
50.783400000000007
10
121.682
20
50.783400000000007
10
121.682
20
44.983400000000003
10
120.881
20
44.983400000000003
10
120.881
20
41.882800000000003
10
121.682
20
41.882800000000003
10
121.682
20
40.883800000000001
10
135.68200000000002
20
40.883800000000001
10
135.68200000000002
20
41.882800000000003
10
136.48099999999999
20
41.882800000000003
10
136.48099999999999
20
44.983400000000003
10
135.68200000000002
20
44.983400000000003
10
135.68200000000002
20
50.783400000000007
10
136.48099999999999
20
50.783400000000007
10
136.48099999999999
20
53.882599999999996
10
135.68200000000002
20
53.882599999999996
10
135.68200000000002
20
54.883099999999999
10
121.682
20
54.883099999999999
10
121.682
20
53.882599999999996
10
120.881
20
53.882599999999996
0
LWPOLYLINE
5
110
100
AcDbEntity
8
0
100
AcDbPolyline
90
20
70
1
43
0.0
10
64.532200000000003
20
44.983400000000003
10
63.731400000000001
20
44.983400000000003
10
63.731400000000001
20
41.882800000000003
10
64.532200000000003
20
41.882800000000003
10
64.532200000000003
20
40.883800000000001
10
78.531499999999994
20
40.883800000000001
10
78.531499999999994
20
41.882800000000003
10
79.3309
20
41.882800000000003
10
79.3309
20
44.983400000000003
10
78.531499999999994
20
44.983400000000003
10
78.531499999999994
20
50.783400000000007
10
79.3309
20
50.783400000000007
10
79.3309
20
53.882599999999996
10
78.531499999999994
20
53.882599999999996
10
78.531499999999994
20
54.883099999999999
10
64.532200000000003
20
54.883099999999999
10
64.532200000000003
20
53.882599999999996
10
63.731400000000001
20
53.882599999999996
10
63.731400000000001
20
50.783400000000007
10
64.532200000000003
20
50.783400000000007
0
LWPOLYLINE
5
111
100
AcDbEntity
8
0
100
AcDbPolyline
90
20
70
1
43
0.0
10
117.431
20
53.882599999999996
10
116.63200000000002
20
53.882599999999996
10
116.63200000000002
20
54.883099999999999
10
102.63200000000001
20
54.883099999999999
10
102.63200000000001
20
53.882599999999996
10
101.83100000000002
20
53.882599999999996
10
101.83100000000002
20
50.783400000000007
10
102.63200000000001
20
50.783400000000007
10
102.63200000000001
20
44.983400000000003
10
101.83100000000002
20
44.983400000000003
10
101.83100000000002
20
41.882800000000003
10
102.63200000000001
20
41.882800000000003
10
102.63200000000001
20
40.883800000000001
10
116.63200000000002
20
40.883800000000001
10
116.63200000000002
20
41.882800000000003
10
117.431
20
41.882800000000003
10
117.431
20
44.983400000000003
10
116.63200000000002
20
44.983400000000003
10
116.63200000000002
20
50.783400000000007
10
117.431
20
50.783400000000007
0
LWPOLYLINE
5
112
100
AcDbEntity
8
0
100
AcDbPolyline
90
20
70
1
43
0.0
10
97.581500000000005
20
53.882599999999996
10
97.581500000000005
20
54.883099999999999
10
83.582200000000014
20
54.883099999999999
10
83.582200000000014
20
53.882599999999996
10
82.781400000000005
20
53.882599999999996
10
82.781400000000005
20
50.783400000000007
10
83.582200000000014
20
50.783400000000007
10
83.582200000000014
20
44.983400000000003
10
82.781400000000005
20
44.983400000000003
10
82.781400000000005
20
41.882800000000003
10
83.582200000000014
20
41.882800000000003
10
83.582200000000014
20
40.883800000000001
10
97.581500000000005
20
40.883800000000001
10
97.581500000000005
20
41.882800000000003
10
98.380900000000011
20
41.882800000000003
10
98.380900000000011
20
44.983400000000003
10
97.581500000000005
20
44.983400000000003
10
97.581500000000005
20
50.783400000000007
10
98.380900000000011
20
50.783400000000007
10
98.380900000000011
20
53.882599999999996
0
LWPOLYLINE
5
113
100
AcDbEntity
8
0
100
AcDbPolyline
90
20
70
1
43
0.0
10
45.482199999999999
20
54.883099999999999
10
45.482199999999999
20
53.882599999999996
10
44.681399999999996
20
53.882599999999996
10
44.681399999999996
20
50.783400000000007
10
45.482199999999999
20
50.783400000000007
10
45.482199999999999
20
44.983400000000003
10
44.681399999999996
20
44.983400000000003
10
44.681399999999996
20
41.882800000000003
10
45.482199999999999
20
41.882800000000003
10
45.482199999999999
20
40.883800000000001
10
59.481499999999997
20
40.883800000000001
10
59.481499999999997
20
41.882800000000003
10
60.280900000000003
20
41.882800000000003
10
60.280900000000003
20
44.983400000000003
10
59.481499999999997
20
44.983400000000003
10
59.481499999999997
20
50.783400000000007
10
60.280900000000003
20
50.783400000000007
10
60.280900000000003
20
53.882599999999996
10
59.481499999999997
20
53.882599999999996
10
59.481499999999997
20
54.883099999999999
0
LWPOLYLINE
5
114
100
AcDbEntity
8
0
100
AcDbPolyline
90
20
70
1
43
0.0
10
6.5815299999999999
20
53.882599999999996
10
6.5815299999999999
20
50.783400000000007
10
7.3821600000000007
20
50.783400000000007
10
7.3821600000000007
20
44.983400000000003
10
6.5815299999999999
20
44.983400000000003
10
6.5815299999999999
20
41.882800000000003
10
7.3821600000000007
20
41.882800000000003
10
7.3821600000000007
20
40.883800000000001
10
21.381700000000002
20
40.883800000000001
10
21.381700000000002
20
41.882800000000003
10
22.180900000000001
20
41.882800000000003
10
22.180900000000001
20
44.983400000000003
10
21.381700000000002
20
44.983400000000003
10
21.381700000000002
20
50.783400000000007
10
22.180900000000001
20
50.783400000000007
10
22.180900000000001
20
53.882599999999996
10
21.381700000000002
20
53.882599999999996
10
21.381700000000002
20
54.883099999999999
10
7.3821600000000007
20
54.883099999999999
10
7.3821600000000007
20
53.882599999999996
0
LWPOLYLINE
5
115
100
AcDbEntity
8
0
100
AcDbPolyline
90
20
70
1
43
0.0
10
173.26900000000001
20
69.833399999999997
10
174.06999999999999
20
69.833399999999997
10
174.06999999999999
20
64.0334
10
173.26900000000001
20
64.0334
10
173.26900000000001
20
60.9328
10
174.06999999999999
20
60.9328
10
174.06999999999999
20
59.933800000000005
10
188.06900000000002
20
59.933800000000005
10
188.06900000000002
20
60.9328
10
188.87
20
60.9328
10
188.87
20
64.0334
10
188.06900000000002
20
64.0334
10
188.06900000000002
20
69.833399999999997
10
188.87
20
69.833399999999997
10
188.87
20
72.932600000000008
10
188.06900000000002
20
72.932600000000008
10
188.06900000000002
20
73.933099999999996
10
174.06999999999999
20
73.933099999999996
10
174.06999999999999
20
72.932600000000008
10
173.26900000000001
20
72.932600000000008
0
LWPOLYLINE
5
116
100
AcDbEntity
8
0
100
AcDbPolyline
90
20
70
1
43
0.0
10
40.4315
20
53.882599999999996
10
40.4315
20
54.883099999999999
10
26.432200000000002
20
54.883099999999999
10
26.432200000000002
20
53.882599999999996
10
25.631500000000003
20
53.882599999999996
10
25.631500000000003
20
50.783400000000007
10
26.432200000000002
20
50.783400000000007
10
26.432200000000002
20
44.983400000000003
10
25.631500000000003
20
44.983400000000003
10
25.631500000000003
20
41.882800000000003
10
26.432200000000002
20
41.882800000000003
10
26.432200000000002
20
40.883800000000001
10
40.4315
20
40.883800000000001
10
40.4315
20
41.882800000000003
10
41.230900000000005
20
41.882800000000003
10
41.230900000000005
20
44.983400000000003
10
40.4315
20
44.983400000000003
10
40.4315
20
50.783400000000007
10
41.230900000000005
20
50.783400000000007
10
41.230900000000005
20
53.882599999999996
0
LWPOLYLINE
5
117
100
AcDbEntity
8
0
100
AcDbPolyline
90
20
70
1
43
0.0
10
169.81999999999999
20
60.9328
10
169.81999999999999
20
64.0334
10
169.01900000000001
20
64.0334
10
169.01900000000001
20
69.833399999999997
10
169.81999999999999
20
69.833399999999997
10
169.81999999999999
20
72.932600000000008
10
169.01900000000001
20
72.932600000000008
10
169.01900000000001
20
73.933099999999996
10
155.02000000000004
20
73.933099999999996
10
155.02000000000004
20
72.932600000000008
10
154.21899999999999
20
72.932600000000008
10
154.21899999999999
20
69.833399999999997
10
155.02000000000004
20
69.833399999999997
10
155.02000000000004
20
64.0334
10
154.21899999999999
20
64.0334
10
154.21899999999999
20
60.9328
10
155.02000000000004
20
60.9328
10
155.02000000000004
20
59.933800000000005
10
169.01900000000001
20
59.933800000000005
10
169.01900000000001
20
60.9328
0
LWPOLYLINE
5
118
100
AcDbEntity
8
0
100
AcDbPolyline
90
20
70
1
43
0.0
10
135.16899999999998
20
60.9328
10
135.97000000000003
20
60.9328
10
135.97000000000003
20
59.933800000000005
10
149.96899999999999
20
59.933800000000005
10
149.96899999999999
20
60.9328
10
150.77000000000001
20
60.9328
10
150.77000000000001
20
64.0334
10
149.96899999999999
20
64.0334
10
149.96899999999999
20
69.833399999999997
10
150.77000000000001
20
69.833399999999997
10
150.77000000000001
20
72.932600000000008
10
149.96899999999999
20
72.932600000000008
10
149.96899999999999
20
73.933099999999996
10
135.97000000000003
20
73.933099999999996
10
135.97000000000003
20
72.932600000000008
10
135.16899999999998
20
72.932600000000008
10
135.16899999999998
20
69.833399999999997
10
135.97000000000003
20
69.833399999999997
10
135.97000000000003
20
64.0334
10
135.16899999999998
20
64.0334
0
LWPOLYLINE
5
119
100
AcDbEntity
8
0
100
AcDbPolyline
90
20
70
1
43
0.0
10
116.119
20
69.833399999999997
10
116.91800000000001
20
69.833399999999997
10
116.91800000000001
20
64.0334
10
116.119
20
64.0334
10
116.119
20
60.9328
10
116.91800000000001
20
60.9328
10
116.91800000000001
20
59.933800000000005
10
130.91899999999998
20
59.933800000000005
10
130.91899999999998
20
60.9328
10
131.72
20
60.9328
10
131.72
20
64.0334
10
130.91899999999998
20
64.0334
10
130.91899999999998
20
69.833399999999997
10
131.72
20
69.833399999999997
10
131.72
20
72.932600000000008
10
130.91899999999998
20
72.932600000000008
10
130.91899999999998
20
73.933099999999996
10
116.91800000000001
20
73.933099999999996
10
116.91800000000001
20
72.932600000000008
10
116.119
20
72.932600000000008
0
LWPOLYLINE
5
120
100
AcDbEntity
8
0
100
AcDbPolyline
90
20
70
1
43
0.0
10
59.769700000000007
20
72.932600000000008
10
58.968899999999998
20
72.932600000000008
10
58.968899999999998
20
69.833399999999997
10
59.769700000000007
20
69.833399999999997
10
59.769700000000007
20
64.0334
10
58.968899999999998
20
64.0334
10
58.968899999999998
20
60.9328
10
59.769700000000007
20
60.9328
10
59.769700000000007
20
59.933800000000005
10
73.768999999999991
20
59.933800000000005
10
73.768999999999991
20
60.9328
10
74.569800000000001
20
60.9328
10
74.569800000000001
20
64.0334
10
73.768999999999991
20
64.0334
10
73.768999999999991
20
69.833399999999997
10
74.569800000000001
20
69.833399999999997
10
74.569800000000001
20
72.932600000000008
10
73.768999999999991
20
72.932600000000008
10
73.768999999999991
20
73.933099999999996
10
59.769700000000007
20
73.933099999999996
0
LWPOLYLINE
5
121
100
AcDbEntity
8
0
100
AcDbPolyline
90
20
70
1
43
0.0
10
97.068900000000014
20
64.0334
10
97.068900000000014
20
60.9328
10
97.868300000000019
20
60.9328
10
97.868300000000019
20
59.933800000000005
10
111.86900000000001
20
59.933800000000005
10
111.86900000000001
20
60.9328
10
112.66800000000001
20
60.9328
10
112.66800000000001
20
64.0334
10
111.86900000000001
20
64.0334
10
111.86900000000001
20
69.833399999999997
10
112.66800000000001
20
69.833399999999997
10
112.66800000000001
20
72.932600000000008
10
111.86900000000001
20
72.932600000000008
10
111.86900000000001
20
73.933099999999996
10
97.868300000000019
20
73.933099999999996
10
97.868300000000019
20
72.932600000000008
10
97.068900000000014
20
72.932600000000008
10
97.068900000000014
20
69.833399999999997
10
97.868300000000019
20
69.833399999999997
10
97.868300000000019
20
64.0334
0
LWPOLYLINE
5
122
100
AcDbEntity
8
0
100
AcDbPolyline
90
20
70
1
43
0.0
10
78.018900000000002
20
64.0334
10
78.018900000000002
20
60.9328
10
78.819699999999997
20
60.9328
10
78.819699999999997
20
59.933800000000005
10
92.819000000000003
20
59.933800000000005
10
92.819000000000003
20
60.9328
10
93.618399999999994
20
60.9328
10
93.618399999999994
20
64.0334
10
92.819000000000003
20
64.0334
10
92.819000000000003
20
69.833399999999997
10
93.618399999999994
20
69.833399999999997
10
93.618399999999994
20
72.932600000000008
10
92.819000000000003
20
72.932600000000008
10
92.819000000000003
20
73.933099999999996
10
78.819699999999997
20
73.933099999999996
10
78.819699999999997
20
72.932600000000008
10
78.018900000000002
20
72.932600000000008
10
78.018900000000002
20
69.833399999999997
10
78.819699999999997
20
69.833399999999997
10
78.819699999999997
20
64.0334
0
LWPOLYLINE
5
123
100
AcDbEntity
8
0
100
AcDbPolyline
90
20
70
1
43
0.0
10
16.619199999999999
20
64.0334
10
16.619199999999999
20
69.833399999999997
10
17.419799999999999
20
69.833399999999997
10
17.419799999999999
20
72.932600000000008
10
16.619199999999999
20
72.932600000000008
10
16.619199999999999
20
73.933099999999996
10
2.61965
20
73.933099999999996
10
2.61965
20
72.932600000000008
10
1.8190099999999998
20
72.932600000000008
10
1.8190099999999998
20
69.833399999999997
10
2.61965
20
69.833399999999997
10
2.61965
20
64.0334
10
1.8190099999999998
20
64.0334
10
1.8190099999999998
20
60.9328
10
2.61965
20
60.9328
10
2.61965
20
59.933800000000005
10
16.619199999999999
20
59.933800000000005
10
16.619199999999999
20
60.9328
10
17.419799999999999
20
60.9328
10
17.419799999999999
20
64.0334
0
LWPOLYLINE
5
124
100
AcDbEntity
8
0
100
AcDbPolyline
90
20
70
1
43
0.0
10
55.519800000000004
20
72.932600000000008
10
54.718999999999994
20
72.932600000000008
10
54.718999999999994
20
73.933099999999996
10
40.719700000000003
20
73.933099999999996
10
40.719700000000003
20
72.932600000000008
10
39.918900000000001
20
72.932600000000008
10
39.918900000000001
20
69.833399999999997
10
40.719700000000003
20
69.833399999999997
10
40.719700000000003
20
64.0334
10
39.918900000000001
20
64.0334
10
39.918900000000001
20
60.9328
10
40.719700000000003
20
60.9328
10
40.719700000000003
20
59.933800000000005
10
54.718999999999994
20
59.933800000000005
10
54.718999999999994
20
60.9328
10
55.519800000000004
20
60.9328
10
55.519800000000004
20
64.0334
10
54.718999999999994
20
64.0334
10
54.718999999999994
20
69.833399999999997
10
55.519800000000004
20
69.833399999999997
0
LWPOLYLINE
5
125
100
AcDbEntity
8
0
100
AcDbPolyline
90
20
70
1
43
0.0
10
35.669000000000004
20
64.0334
10
35.669000000000004
20
69.833399999999997
10
36.469799999999999
20
69.833399999999997
10
36.469799999999999
20
72.932600000000008
10
35.669000000000004
20
72.932600000000008
10
35.669000000000004
20
73.933099999999996
10
21.669699999999999
20
73.933099999999996
10
21.669699999999999
20
72.932600000000008
10
20.869
20
72.932600000000008
10
20.869
20
69.833399999999997
10
21.669699999999999
20
69.833399999999997
10
21.669699999999999
20
64.0334
10
20.869
20
64.0334
10
20.869
20
60.9328
10
21.669699999999999
20
60.9328
10
21.669699999999999
20
59.933800000000005
10
35.669000000000004
20
59.933800000000005
10
35.669000000000004
20
60.9328
10
36.469799999999999
20
60.9328
10
36.469799999999999
20
64.0334
0
LWPOLYLINE
5
126
100
AcDbEntity
8
0
100
AcDbPolyline
90
45
70
1
43
0.0
10
104.72499999999999
20
7.482730000000001
10
106.25100000000002
20
7.482730000000001
10
106.25100000000002
20
4.2527300000000006
10
113
20
4.2527300000000006
10
113
20
7.4827300000000019
10
113.82600000000002
20
7.482730000000001
10
113.82600000000002
20
10.28173
10
113
20
10.28173
10
113
20
12.082600000000001
10
113
20
15.312799999999999
10
112.99500000000002
20
16.551600000000001
10
111.27500000000001
20
16.551600000000001
10
111.27500000000001
20
17.7516
10
107.97500000000001
20
17.7516
10
107.97500000000001
20
16.551600000000001
10
106.25100000000002
20
16.551600000000001
10
106.25100000000002
20
12.082600000000001
10
104.72499999999999
20
12.082600000000001
10
104.72499999999999
20
15.7827
10
104.72499999999999
20
16.783100000000001
10
90.725999999999999
20
16.783100000000001
10
90.725999999999999
20
15.7827
10
90.725999999999999
20
12.082600000000001
10
89.200599999999994
20
12.082600000000001
10
89.200599999999994
20
16.551600000000001
10
87.476599999999991
20
16.551600000000001
10
87.476599999999991
20
17.7516
10
84.176599999999993
20
17.7516
10
84.176599999999993
20
16.551600000000001
10
82.452600000000004
20
16.551600000000001
10
82.450900000000019
20
15.312799999999999
10
82.450900000000019
20
12.082600000000001
10
82.450900000000019
20
10.28173
10
81.625399999999999
20
10.28173
10
81.625399999999999
20
9.2838399999999996
10
81.625399999999999
20
7.482730000000001
10
82.450900000000019
20
7.482730000000001
10
82.450900000000019
20
4.2527300000000006
10
89.200599999999994
20
4.2527300000000006
10
89.200599999999994
20
7.482730000000001
10
90.725999999999999
20
7.482730000000001
10
90.725999999999999
20
3.7827300000000008
10
90.725999999999999
20
2.7836400000000001
10
104.72499999999999
20
2.7836400000000001
10
104.72499999999999
20
3.7827300000000008
0
LINE
5
127
100
AcDbEntity
8
0
100
AcDbLine
10
113.82600000000002
20
9.2838399999999996
30
0
11
113.82600000000002
21
10.28173
31
0
0
LINE
5
128
100
AcDbEntity
8
0
100
AcDbLine
10
106.25100000000002
20
15.312799999999999
30
0
11
106.25100000000002
21
12.082600000000001
31
0
0
LWPOLYLINE
5
129
100
AcDbEntity
8
0
100
AcDbPolyline
90
26
70
1
43
0.0
10
0.095084600000000019
20
76.457499999999996
10
190.595
20
76.457499999999996
10
190.595
20
57.408799999999999
10
181.06950000000001
20
57.408799999999999
10
176.30700000000004
20
57.408799999999999
10
176.30700000000004
20
47.883400000000009
10
176.30700000000004
20
38.358800000000002
10
166.78200000000004
20
38.358800000000002
10
147.732
20
38.358800000000002
10
147.732
20
28.833400000000001
10
147.732
20
19.308599999999998
10
138.20699999999999
20
19.308599999999998
10
123.92000000000002
20
19.308599999999998
10
123.92000000000002
20
13.697699999999999
10
123.92000000000003
20
0.25769300000000001
10
71.530900000000003
20
0.25769300000000106
10
71.530900000000003
20
12.082600000000001
10
71.530900000000003
20
19.308599999999998
10
62.00685
20
19.308599999999998
10
14.382200000000003
20
19.308599999999998
10
14.382200000000001
20
28.833400000000001
10
14.381930000000001
20
38.358800000000002
10
4.8571600000000013
20
38.358800000000002
10
4.8571600000000013
20
47.883400000000009
10
4.8571600000000013
20
57.408799999999999
10
0.095084600000000019
20
57.408800000000006
0
LINE
5
130
100
AcDbEntity
8
0
100
AcDbLine
10
90.725999999999999
20
12.684800000000001
30
0
11
90.725999999999999
21
12.082600000000001
31
0
0
LINE
5
131
100
AcDbEntity
8
0
100
AcDbLine
10
89.200599999999994
20
12.082600000000001
30
0
11
89.200599999999994
21
15.312799999999999
31
0
0
LINE
5
132
100
AcDbEntity
8
0
100
AcDbLine
10
104.72499999999999
20
6.8832899999999997
30
0
11
104.72499999999999
21
7.482730000000001
31
0
0
LINE
5
133
100
AcDbEntity
8
0
100
AcDbLine
10
104.72499999999999
20
12.082600000000001
30
0
11
104.72499999999999
21
12.684800000000001
31
0
0
LINE
5
134
100
AcDbEntity
8
0
100
AcDbLine
10
90.725999999999999
20
7.482730000000001
30
0
11
90.725999999999999
21
6.8832899999999997
31
0
0
LINE
5
135
100
AcDbEntity
8
0
100
AcDbLine
10
106.25100000000002
20
7.482730000000001
30
0
11
106.25100000000002
21
4.2527300000000006
31
0
0
LINE
5
136
100
AcDbEntity
8
0
100
AcDbLine
10
89.200599999999994
20
7.482730000000001
30
0
11
89.200599999999994
21
4.2527300000000006
31
0
0
ENDSEC
0
SECTION
2
OBJECTS
0
DICTIONARY
5
C
100
AcDbDictionary
3
ACAD_GROUP
350
D
3
ACAD_MLINESTYLE
350
17
0
DICTIONARY
5
D
100
AcDbDictionary
0
DICTIONARY
5
1A
330
C
100
AcDbDictionary
0
DICTIONARY
5
17
100
AcDbDictionary
0
ENDSEC
0
EOF
